<svg width="38" height="38" viewBox="0 0 38 38" fill="none" xmlns="http://www.w3.org/2000/svg">
<g clip-path="url(#clip0_541_148)">
<path d="M35.451 9.92768C33.752 7.01661 31.4474 4.71191 28.5366 3.01306C25.6253 1.31412 22.4471 0.464874 18.9997 0.464874C15.5527 0.464874 12.3734 1.31438 9.46281 3.01306C6.55173 4.71182 4.24721 7.01661 2.54819 9.92768C0.849424 12.8387 0 16.0175 0 19.4641C0 23.6042 1.20789 27.3271 3.62428 30.6337C6.04042 33.9406 9.1617 36.2288 12.9879 37.4986C13.4333 37.5813 13.763 37.5232 13.9773 37.3257C14.1918 37.128 14.2989 36.8803 14.2989 36.5838C14.2989 36.5343 14.2946 36.0892 14.2864 35.2479C14.2779 34.4067 14.2739 33.6727 14.2739 33.0465L13.7049 33.1449C13.3421 33.2114 12.8844 33.2396 12.3319 33.2316C11.7796 33.2239 11.2062 33.166 10.6126 33.0584C10.0187 32.9517 9.46627 32.7043 8.95495 32.3168C8.4439 31.9292 8.0811 31.4218 7.86664 30.7955L7.61925 30.2263C7.45436 29.8472 7.19476 29.4262 6.8401 28.9647C6.48545 28.5028 6.12681 28.1896 5.764 28.0248L5.59079 27.9008C5.47538 27.8184 5.36828 27.719 5.26924 27.6036C5.17028 27.4883 5.0962 27.3729 5.04672 27.2573C4.99716 27.1416 5.03823 27.0467 5.17037 26.9723C5.30251 26.8979 5.54131 26.8617 5.88783 26.8617L6.38242 26.9357C6.71229 27.0018 7.12033 27.1992 7.60704 27.5293C8.09349 27.8591 8.49337 28.2878 8.80678 28.8153C9.18631 29.4917 9.64356 30.0071 10.1798 30.3618C10.7157 30.7164 11.2559 30.8935 11.8001 30.8935C12.3442 30.8935 12.8142 30.8522 13.2102 30.7701C13.6058 30.6877 13.9769 30.5637 14.3234 30.3989C14.4718 29.2934 14.876 28.4441 15.5355 27.8505C14.5955 27.7517 13.7504 27.6029 12.9997 27.4051C12.2495 27.207 11.4743 26.8856 10.6745 26.4398C9.8743 25.9947 9.21048 25.442 8.68288 24.7826C8.15518 24.1228 7.72211 23.2567 7.38426 22.1849C7.04624 21.1127 6.87719 19.8759 6.87719 18.4741C6.87719 16.4781 7.52879 14.7796 8.83174 13.3776C8.22138 11.877 8.279 10.1948 9.00478 8.33117C9.48308 8.18256 10.1924 8.29408 11.1324 8.66503C12.0725 9.03614 12.7609 9.35406 13.1981 9.61765C13.6353 9.88115 13.9856 10.1044 14.2496 10.2855C15.7837 9.85689 17.3669 9.64252 18.9995 9.64252C20.6322 9.64252 22.2157 9.85689 23.7499 10.2855L24.69 9.69208C25.3328 9.29609 26.092 8.93321 26.9655 8.60333C27.8397 8.27363 28.5081 8.18282 28.9701 8.33143C29.712 10.1952 29.7781 11.8773 29.1676 13.3779C30.4704 14.7799 31.1223 16.4788 31.1223 18.4743C31.1223 19.8762 30.9526 21.1169 30.6151 22.1973C30.2772 23.2779 29.8404 24.1432 29.3046 24.795C28.7681 25.4467 28.1001 25.9951 27.3003 26.4401C26.5003 26.8855 25.7248 27.207 24.9746 27.405C24.2241 27.6031 23.379 27.752 22.439 27.8509C23.2963 28.5928 23.725 29.7639 23.725 31.3636V36.5831C23.725 36.8796 23.8281 37.1272 24.0345 37.325C24.2407 37.5225 24.5662 37.5806 25.0116 37.4979C28.8383 36.2282 31.9596 33.9399 34.3756 30.633C36.7914 27.3264 37.9997 23.6035 37.9997 19.4634C37.9989 16.0172 37.149 12.8387 35.451 9.92768Z" fill="url(#paint0_linear_541_148)"/>
</g>
<defs>
<linearGradient id="paint0_linear_541_148" x1="18.9999" y1="0.464874" x2="18.9999" y2="37.5351" gradientUnits="userSpaceOnUse">
<stop stop-color="#5586FF"/>
<stop offset="1" stop-color="#031A83"/>
</linearGradient>
<clipPath id="clip0_541_148">
<rect width="38" height="38" fill="white"/>
</clipPath>
</defs>
</svg>
