<svg width="38" height="38" viewBox="0 0 38 38" fill="none" xmlns="http://www.w3.org/2000/svg">
<g clip-path="url(#clip0_541_143)">
<path d="M19 37.9996C29.4934 37.9996 38 29.493 38 18.9996C38 8.50616 29.4934 -0.000427246 19 -0.000427246C8.50659 -0.000427246 0 8.50616 0 18.9996C0 29.493 8.50659 37.9996 19 37.9996Z" fill="url(#paint0_linear_541_143)"/>
<path d="M30.3523 20.5285V28.3618H25.8108V21.0535C25.8108 19.2185 25.1551 17.9653 23.5107 17.9653C22.2558 17.9653 21.5104 18.809 21.1812 19.6259C21.0616 19.9179 21.0308 20.3233 21.0308 20.7328V28.3615H16.4889C16.4889 28.3615 16.5499 15.9836 16.4889 14.7023H21.0311V16.638C21.022 16.6532 21.0091 16.6681 21.001 16.6827H21.0311V16.638C21.6347 15.7093 22.711 14.3816 25.1242 14.3816C28.1122 14.3816 30.3523 16.3338 30.3523 20.5285ZM11.7377 8.11813C10.1841 8.11813 9.16772 9.13794 9.16772 10.4778C9.16772 11.7892 10.1547 12.8385 11.6781 12.8385H11.7076C13.2917 12.8385 14.2766 11.7892 14.2766 10.4778C14.2464 9.13794 13.2916 8.11813 11.7377 8.11813ZM9.43766 28.3618H13.9778V14.7023H9.43766V28.3618Z" fill="#F1F2F2"/>
</g>
<defs>
<linearGradient id="paint0_linear_541_143" x1="19" y1="-0.000427246" x2="19" y2="37.9996" gradientUnits="userSpaceOnUse">
<stop stop-color="#5384FD"/>
<stop offset="1" stop-color="#011881"/>
</linearGradient>
<clipPath id="clip0_541_143">
<rect width="38" height="38" fill="white"/>
</clipPath>
</defs>
</svg>
