<svg width="38" height="38" viewBox="0 0 38 38" fill="none" xmlns="http://www.w3.org/2000/svg">
<path d="M18.9999 1.51999C9.36157 1.51999 1.51989 9.36167 1.51989 19C1.51989 22.0096 2.29737 24.969 3.77177 27.5804L1.54801 35.5148C1.47505 35.7755 1.54573 36.0551 1.73421 36.2489C1.87937 36.3987 2.07697 36.48 2.27989 36.48C2.34069 36.48 2.40225 36.4724 2.46229 36.4579L10.7432 34.4067C13.2718 35.7641 16.1195 36.48 18.9999 36.48C28.6382 36.48 36.4799 28.6383 36.4799 19C36.4799 9.36167 28.6382 1.51999 18.9999 1.51999ZM27.7931 25.1681C27.4192 26.2033 25.6256 27.1479 24.7637 27.2749C23.99 27.3881 23.0112 27.4367 21.9365 27.0993C21.2852 26.8941 20.4492 26.622 19.3784 26.1653C14.8769 24.2455 11.9372 19.7699 11.7122 19.4742C11.488 19.1786 9.87989 17.0719 9.87989 14.8914C9.87989 12.711 11.0389 11.6386 11.4508 11.1948C11.8627 10.7509 12.3484 10.64 12.6478 10.64C12.9472 10.64 13.2459 10.6438 13.5081 10.6559C13.784 10.6696 14.1541 10.5518 14.5182 11.4167C14.8921 12.3044 15.7896 14.4848 15.9006 14.7075C16.0131 14.9294 16.0876 15.1886 15.9386 15.4842C15.7896 15.7799 15.7152 15.9645 15.4902 16.2237C15.2652 16.4829 15.019 16.8013 14.8168 17.0004C14.5919 17.2216 14.3586 17.461 14.62 17.9048C14.8814 18.3487 15.782 19.7995 17.1166 20.9745C18.8304 22.4838 20.2767 22.952 20.7251 23.1739C21.1735 23.3958 21.4357 23.3586 21.6971 23.0629C21.9586 22.7665 22.8189 21.7687 23.1176 21.3256C23.4162 20.8825 23.7157 20.9555 24.1276 21.1037C24.5395 21.2511 26.7458 22.3227 27.1942 22.5446C27.6426 22.7665 27.942 22.8775 28.0545 23.0622C28.167 23.2461 28.167 24.1338 27.7931 25.1681Z" fill="url(#paint0_linear_562_2)"/>
<defs>
<linearGradient id="paint0_linear_562_2" x1="18.9998" y1="1.51999" x2="18.9998" y2="36.48" gradientUnits="userSpaceOnUse">
<stop stop-color="#5586FF"/>
<stop offset="1" stop-color="#031A83"/>
</linearGradient>
</defs>
</svg>
